<svg width="81" height="84" viewBox="0 0 81 84" fill="none" xmlns="http://www.w3.org/2000/svg">
<path fill-rule="evenodd" clip-rule="evenodd" d="M52.4591 49.9627C59.7951 41.4371 60.3776 28.6524 53.2184 19.4192C45.043 8.87532 29.868 6.95534 19.3242 15.1308C8.78033 23.3062 6.86036 38.4811 15.0358 49.025C22.3424 58.4484 35.24 60.9833 45.4257 55.5794L54.9484 67.8608C56.4712 69.8248 59.2979 70.1825 61.262 68.6596C63.226 67.1367 63.5837 64.31 62.0608 62.346L52.4591 49.9627ZM47.1287 24.707C52.4276 31.541 51.1832 41.3766 44.3492 46.6755C37.5153 51.9744 27.6796 50.7299 22.3808 43.896C17.0819 37.062 18.3263 27.2264 25.1603 21.9275C31.9942 16.6286 41.8299 17.873 47.1287 24.707Z" fill="#3f3f3f"/>
</svg>
